<svg xmlns="http://www.w3.org/2000/svg" width="92.476" height="55.216" viewBox="0 0 92.476 55.216">
  <g id="Group_164" data-name="Group 164" transform="translate(-126.762 -66.135)">
    <g id="Group_97" data-name="Group 97" transform="translate(-1057.238 -61.177)">
      <g id="Group_111" data-name="Group 111" transform="translate(1184 127.312)">
        <g id="Group_94" data-name="Group 94" transform="translate(21.795 0)">
          <path id="Path_54" data-name="Path 54" d="M20.908,0A20.324,20.324,0,0,1,41.484,20.062,20.324,20.324,0,0,1,20.908,40.124C9.544,40.124.683,33.22.683,22.14S9.544,0,20.908,0Z" transform="translate(29.196 15.092)" fill="#15a0dd"/>
          <path id="Path_52" data-name="Path 52" d="M26.678-1.021c16.293,2,28.419,19.934,30.7,31.208S56.717,50.616,43.59,50.616c-2.3,0-5.762-.048-12.064-7.775C23.4,32.874,18.973,21.3,9.782,15.177a13.4,13.4,0,0,0-5.85-2.5c-2.568-.276-2.143,2.155-2.183-.826C1.7,7.985,9.565,2.278,12.754.66,15.416-.775,20.79-1.921,26.678-1.021Z" transform="translate(-1.745 1.34)" fill="#15a0dd"/>
        </g>
        <path id="Path_53" data-name="Path 53" d="M-1611.95,7642.207s-7.453-3.348-12.526-13.1-11.946-20.82-22.349-24.751a18.13,18.13,0,0,0-22.917,9.186c-3.368,7.124-2,12.8,0,16.768s8,9.3,17.5,11.894S-1611.95,7642.207-1611.95,7642.207Z" transform="translate(1671.789 -7588.144)" fill="#0a4c7e"/>
        <text id="CERA" transform="translate(16.014 22.232)" fill="#f5f8fa" font-size="25" font-family="CourierNewPS-BoldMT, Courier New" font-weight="700"><tspan x="0" y="21">CERA</tspan></text>
      </g>
    </g>
  </g>
</svg>
